<svg width="16" height="15" viewBox="0 0 16 15" fill="none" xmlns="http://www.w3.org/2000/svg">
<g id="tabler:mail">
<path id="Vector" d="M3 5.75L7.6025 8.81833C7.79422 8.94625 8.01953 9.01451 8.25 9.01451C8.48047 9.01451 8.70578 8.94625 8.8975 8.81833L13.5 5.75M4.16667 12.1667H12.3333C12.6428 12.1667 12.9395 12.0438 13.1583 11.825C13.3771 11.6062 13.5 11.3094 13.5 11V5.16667C13.5 4.85725 13.3771 4.5605 13.1583 4.34171C12.9395 4.12292 12.6428 4 12.3333 4H4.16667C3.85725 4 3.5605 4.12292 3.34171 4.34171C3.12292 4.5605 3 4.85725 3 5.16667V11C3 11.3094 3.12292 11.6062 3.34171 11.825C3.5605 12.0438 3.85725 12.1667 4.16667 12.1667Z" stroke="#4D5965" stroke-linecap="round" stroke-linejoin="round"/>
</g>
</svg>
