<svg width="11" height="15" viewBox="0 0 11 15" fill="none" xmlns="http://www.w3.org/2000/svg">
<path d="M5.38462 1.5C5.9171 1.5 6.43763 1.64662 6.88038 1.92133C7.32313 2.19603 7.66821 2.58648 7.87198 3.04329C8.07576 3.50011 8.12908 4.00277 8.02519 4.48773C7.92131 4.97268 7.66489 5.41814 7.28836 5.76777C6.91184 6.1174 6.43212 6.3555 5.90986 6.45196C5.3876 6.54843 4.84627 6.49892 4.35431 6.3097C3.86236 6.12048 3.44188 5.80005 3.14604 5.38893C2.85021 4.9778 2.69231 4.49445 2.69231 4C2.69231 3.33696 2.97596 2.70107 3.48087 2.23223C3.98577 1.76339 4.67057 1.5 5.38462 1.5ZM5.38462 0.5C4.63913 0.5 3.91039 0.705271 3.29054 1.08986C2.6707 1.47444 2.18758 2.02107 1.9023 2.66061C1.61702 3.30015 1.54237 4.00388 1.68781 4.68282C1.83325 5.36175 2.19223 5.98539 2.71937 6.47487C3.2465 6.96436 3.91812 7.2977 4.64928 7.43275C5.38043 7.5678 6.1383 7.49848 6.82704 7.23358C7.51578 6.96867 8.10445 6.52007 8.51862 5.9445C8.93279 5.36892 9.15385 4.69223 9.15385 4C9.15385 3.07174 8.75673 2.1815 8.04986 1.52513C7.343 0.868749 6.38428 0.5 5.38462 0.5ZM10.7692 14.5H9.69231V12C9.69231 11.337 9.40866 10.7011 8.90375 10.2322C8.39884 9.76339 7.71404 9.5 7 9.5H3.76923C3.05519 9.5 2.37039 9.76339 1.86548 10.2322C1.36058 10.7011 1.07692 11.337 1.07692 12V14.5H0V12C0 11.0717 0.397114 10.1815 1.10398 9.52513C1.81085 8.86875 2.76957 8.5 3.76923 8.5H7C7.99966 8.5 8.95838 8.86875 9.66525 9.52513C10.3721 10.1815 10.7692 11.0717 10.7692 12V14.5Z" fill="#4D5965"/>
</svg>
