<svg width="35" height="35" viewBox="0 0 35 35" fill="none" xmlns="http://www.w3.org/2000/svg">
<g id="Group 24">
<path id="Vector" d="M11.7772 0.959371C8.23902 2.1868 5.1877 4.5165 3.07143 7.60627C0.955156 10.696 -0.114519 14.383 0.0195228 18.1257C0.153564 21.8683 1.48426 25.4693 3.81614 28.3998C6.14803 31.3302 9.35819 33.4357 12.9751 34.4069C15.9074 35.1635 18.9796 35.1967 21.9276 34.5037C24.5982 33.9038 27.0673 32.6207 29.093 30.7799C31.2013 28.8056 32.7316 26.2939 33.5195 23.515C34.3755 20.493 34.5278 17.315 33.9649 14.2249H17.4984V21.0555H27.0347C26.8441 22.145 26.4357 23.1847 25.8339 24.1126C25.2321 25.0406 24.4492 25.8375 23.5322 26.4558C22.3679 27.2264 21.0552 27.7447 19.6784 27.9774C18.2978 28.2342 16.8816 28.2342 15.501 27.9774C14.1015 27.6884 12.7777 27.1108 11.614 26.2815C9.74421 24.958 8.34027 23.0777 7.6025 20.9089C6.85246 18.6995 6.85246 16.3043 7.6025 14.0949C8.12766 12.5462 8.99582 11.1362 10.1422 9.97C11.454 8.61092 13.1149 7.63945 14.9426 7.16217C16.7702 6.68488 18.694 6.72023 20.5029 7.26432C21.916 7.6979 23.2083 8.45581 24.2764 9.47755C25.3517 8.40782 26.4251 7.33533 27.4967 6.26006C28.05 5.68186 28.6531 5.13132 29.1981 4.53928C27.5673 3.02188 25.6532 1.84108 23.5654 1.0645C19.7634 -0.316032 15.6033 -0.353133 11.7772 0.959371Z" fill="white"/>
<path id="Vector_2" d="M11.7771 0.959373C15.6029 -0.354023 19.763 -0.317899 23.5654 1.06174C25.6535 1.84359 27.5668 3.03007 29.1953 4.55311C28.642 5.14515 28.0582 5.69846 27.4939 6.2739C26.4204 7.34547 25.3479 8.41336 24.2764 9.47755C23.2082 8.45581 21.916 7.6979 20.5028 7.26432C18.6945 6.71832 16.7708 6.68093 14.9427 7.15627C13.1145 7.6316 11.4527 8.60128 10.1393 9.95893C8.99299 11.1251 8.12483 12.5352 7.59966 14.0838L1.86462 9.64355C3.91742 5.57275 7.47171 2.4589 11.7771 0.959373Z" fill="#E33629"/>
<path id="Vector_3" d="M0.343043 14.0424C0.651069 12.5146 1.16284 11.0351 1.86464 9.64355L7.59968 14.0949C6.84964 16.3043 6.84964 18.6995 7.59968 20.9089C5.68892 22.3844 3.77724 23.8673 1.86464 25.3575C0.108304 21.8615 -0.427348 17.8782 0.343043 14.0424Z" fill="#F8BD00"/>
<path id="Vector_4" d="M17.4983 14.2222H33.9648C34.5277 17.3122 34.3753 20.4902 33.5193 23.5122C32.7315 26.2911 31.2012 28.8028 29.0929 30.7771C27.2421 29.333 25.3829 27.8999 23.5321 26.4558C24.4497 25.8369 25.2329 25.0391 25.8347 24.1102C26.4366 23.1813 26.8447 22.1404 27.0346 21.05H17.4983C17.4955 18.7759 17.4983 16.499 17.4983 14.2222Z" fill="#587DBD"/>
<path id="Vector_5" d="M1.86182 25.3575C3.77442 23.882 5.6861 22.3991 7.59686 20.9089C8.3361 23.0784 9.74205 24.9588 11.6139 26.2815C12.7812 27.107 14.1079 27.6799 15.5092 27.9636C16.8898 28.2204 18.306 28.2204 19.6866 27.9636C21.0633 27.7309 22.3761 27.2126 23.5404 26.442C25.3912 27.8861 27.2504 29.3192 29.1012 30.7633C27.0758 32.6051 24.6067 33.8892 21.9358 34.4899C18.9878 35.1829 15.9156 35.1497 12.9833 34.393C10.6641 33.7738 8.49785 32.6822 6.62027 31.1866C4.63314 29.6086 3.01003 27.6203 1.86182 25.3575Z" fill="#319F43"/>
</g>
</svg>
