<svg width="11" height="13" viewBox="0 0 11 13" fill="none" xmlns="http://www.w3.org/2000/svg">
<path id="Vector" d="M5.66667 8.25V9.41667M2.16667 11.75H9.16667C9.47609 11.75 9.77283 11.6271 9.99162 11.4083C10.2104 11.1895 10.3333 10.8928 10.3333 10.5833V7.08333C10.3333 6.77391 10.2104 6.47717 9.99162 6.25838C9.77283 6.03958 9.47609 5.91667 9.16667 5.91667H2.16667C1.85725 5.91667 1.5605 6.03958 1.34171 6.25838C1.12292 6.47717 1 6.77391 1 7.08333V10.5833C1 10.8928 1.12292 11.1895 1.34171 11.4083C1.5605 11.6271 1.85725 11.75 2.16667 11.75ZM8 5.91667V3.58333C8 2.96449 7.75417 2.371 7.31658 1.93342C6.879 1.49583 6.2855 1.25 5.66667 1.25C5.04783 1.25 4.45434 1.49583 4.01675 1.93342C3.57917 2.371 3.33333 2.96449 3.33333 3.58333V5.91667H8Z" stroke="#4D5965" stroke-linecap="round" stroke-linejoin="round"/>
</svg>
