<svg width="102" height="102" viewBox="0 0 102 102" fill="none" xmlns="http://www.w3.org/2000/svg">
<path d="M43.8024 0.863065C19.6485 0.863065 0 20.5116 0 44.6655C0 68.8193 19.6485 88.4678 43.8024 88.4678C51.1862 88.4678 58.4449 86.7157 64.5772 83.3367C65.0684 83.9278 65.6131 84.4724 66.2042 84.9636L78.7191 97.4786C79.8747 98.7789 81.2839 99.8293 82.8601 100.565C84.4364 101.301 86.1464 101.707 87.8853 101.759C89.6241 101.81 91.3551 101.505 92.9719 100.863C94.5887 100.221 96.0572 99.2553 97.2873 98.0252C98.5174 96.7951 99.4831 95.3266 100.125 93.7098C100.767 92.093 101.072 90.362 101.021 88.6232C100.969 86.8844 100.563 85.1743 99.8274 83.5981C99.0914 82.0218 98.041 80.6127 96.7407 79.4571L84.2257 66.9421C83.6161 66.3322 82.9451 65.787 82.2233 65.3152C85.6024 59.1828 87.7299 52.0493 87.7299 44.5403C87.7299 20.3864 68.0814 0.737915 43.9275 0.737915L43.8024 0.863065ZM43.8024 13.378C61.1982 13.378 75.0898 27.2696 75.0898 44.6655C75.0898 52.9253 72.0862 60.5595 66.8299 66.1912C66.7048 66.3163 66.5796 66.4415 66.4545 66.5666C65.8634 67.0579 65.3187 67.6025 64.8275 68.1936C59.3209 73.1996 51.812 76.078 43.6772 76.078C26.2814 76.078 12.3898 62.1864 12.3898 44.7906C12.3898 27.3948 26.2814 13.5032 43.6772 13.5032L43.8024 13.378Z" fill="black"/>
</svg>
